<svg width="31" height="26" viewBox="0 0 31 26" fill="none" xmlns="http://www.w3.org/2000/svg">
<path d="M9.09259 9.14816H2.19346C1.57114 9.14816 1.09997 9.71049 1.20889 10.3232L3.66815 24.1565C3.753 24.6338 4.16795 24.9815 4.65272 24.9815H26.5134C27.0146 24.9815 27.4384 24.6105 27.5046 24.1137L29.349 10.2803C29.429 9.68084 28.9626 9.14816 28.3578 9.14816H14.3704" stroke="#3C3C3C" stroke-width="1.5" stroke-linecap="round"/>
<path d="M22.1111 15.8333V7.38889C22.1111 3.69676 19.8217 1.40741 16.1296 1.40741C12.4375 1.40741 10.1481 3.69676 10.1481 7.38889V15.8333C10.1481 16.222 9.83307 16.537 9.44443 16.537C9.05578 16.537 8.74072 16.222 8.74072 15.8333V7.38889C8.74072 3.30812 12.0488 0 16.1296 0C20.2104 0 23.5185 3.30812 23.5185 7.38889V15.8333C23.5185 16.222 23.2034 16.537 22.8148 16.537C22.4262 16.537 22.1111 16.222 22.1111 15.8333Z" fill="#3C3C3C"/>
</svg>
