<svg width="133" height="99" viewBox="0 0 133 99" fill="none" xmlns="http://www.w3.org/2000/svg">
<path d="M60.225 0.972412C59.3966 0.972412 58.725 1.64398 58.725 2.47241C58.725 3.30084 59.3966 3.97241 60.225 3.97241V0.972412ZM100.096 2.47241L101.59 2.61463L101.746 0.972412H100.096V2.47241ZM94.4005 62.2796V63.7796H95.7644L95.8938 62.4218L94.4005 62.2796ZM23.2015 62.2796L21.7082 62.1374L21.7078 62.1417L23.2015 62.2796ZM28.8974 2.47241V0.972412H27.5335L27.4042 2.3302L28.8974 2.47241ZM53.2633 3.97241C54.0917 3.97241 54.7633 3.30084 54.7633 2.47241C54.7633 1.64398 54.0917 0.972412 53.2633 0.972412V3.97241ZM21.3028 82.8482L19.8092 82.7103L19.658 84.3482H21.3028V82.8482ZM128.576 82.8482V84.3482H129.903L130.065 83.0314L128.576 82.8482ZM131.108 62.2796L132.596 62.4628L132.601 62.4223L132.604 62.3816L131.108 62.2796ZM120.665 55.9508L121.921 55.1314L120.665 55.9508ZM15.9234 44.6411C15.0949 44.6411 14.4234 45.3127 14.4234 46.1411C14.4234 46.9696 15.0949 47.6411 15.9234 47.6411V44.6411ZM39.6564 47.6411C40.4848 47.6411 41.1564 46.9696 41.1564 46.1411C41.1564 45.3127 40.4848 44.6411 39.6564 44.6411V47.6411ZM8.01236 31.6671C7.18393 31.6671 6.51236 32.3387 6.51236 33.1671C6.51236 33.9955 7.18393 34.6671 8.01236 34.6671V31.6671ZM18.7713 34.6671C19.5998 34.6671 20.2713 33.9955 20.2713 33.1671C20.2713 32.3387 19.5998 31.6671 18.7713 31.6671V34.6671ZM2 16.7944C1.17157 16.7944 0.5 17.466 0.5 18.2944C0.5 19.1228 1.17157 19.7944 2 19.7944V16.7944ZM49.7825 19.7944C50.6109 19.7944 51.2825 19.1228 51.2825 18.2944C51.2825 17.466 50.6109 16.7944 49.7825 16.7944V19.7944ZM60.225 3.97241H100.096V0.972412H60.225V3.97241ZM94.4005 60.7796H23.2015V63.7796H94.4005V60.7796ZM24.6947 62.4218L30.3907 2.61463L27.4042 2.3302L21.7082 62.1374L24.6947 62.4218ZM28.8974 3.97241H53.2633V0.972412H28.8974V3.97241ZM21.7078 62.1417L19.8092 82.7103L22.7965 82.9861L24.6951 62.4175L21.7078 62.1417ZM130.065 83.0314L132.596 62.4628L129.619 62.0964L127.087 82.665L130.065 83.0314ZM132.604 62.3816C132.77 59.9452 132.686 55.9723 131.909 51.8444C131.137 47.7437 129.646 43.298 126.86 40.0938L124.596 42.0624C126.873 44.6807 128.23 48.5152 128.961 52.3994C129.687 56.2563 129.761 59.9729 129.611 62.1776L132.604 62.3816ZM126.86 40.0938C124.122 36.9449 120.567 34.9023 117.296 33.6215C114.027 32.3416 110.946 31.7849 109.048 31.6698L108.866 34.6644C110.448 34.7602 113.221 35.2478 116.202 36.415C119.181 37.5814 122.271 39.3888 124.596 42.0624L126.86 40.0938ZM98.6032 2.3302L95.7552 32.2338L98.7417 32.5182L101.59 2.61463L98.6032 2.3302ZM109.058 31.6705L97.3496 30.8794L97.1474 33.8726L108.856 34.6637L109.058 31.6705ZM107.462 33.0372L106.197 47.5934L109.185 47.8533L110.451 33.297L107.462 33.0372ZM95.7552 32.2338L94.3312 47.1856L97.3177 47.47L98.7417 32.5182L95.7552 32.2338ZM94.3312 47.1856L92.9073 62.1374L95.8938 62.4218L97.3177 47.47L94.3312 47.1856ZM107.741 46.2242L95.8745 45.8286L95.7745 48.827L107.641 49.2225L107.741 46.2242ZM107.341 49.1819C108.851 49.5444 110.618 49.7218 112.76 50.7077C114.825 51.658 117.19 53.3688 119.409 56.7702L121.921 55.1314C119.393 51.2547 116.59 49.1682 114.014 47.9825C111.515 46.8324 109.168 46.5352 108.041 46.2648L107.341 49.1819ZM119.409 56.7702C123.299 62.736 128.955 63.7796 131.108 63.7796V60.7796C129.674 60.7796 125.115 60.0275 121.921 55.1314L119.409 56.7702ZM15.9234 47.6411H39.6564V44.6411H15.9234V47.6411ZM8.01236 34.6671H18.7713V31.6671H8.01236V34.6671ZM2 19.7944H49.7825V16.7944H2V19.7944ZM21.3028 84.3482H29.8467V81.3482H21.3028V84.3482ZM59.5921 84.3482H89.9704V81.3482H59.5921V84.3482ZM119.716 84.3482H128.576V81.3482H119.716V84.3482Z" fill="#E50068"/>
<circle cx="44.7194" cy="83.1647" r="13.3727" stroke="#E50068" stroke-width="3"/>
<circle cx="104.843" cy="83.1647" r="13.3727" stroke="#E50068" stroke-width="3"/>
<circle cx="44.7193" cy="83.1646" r="5.77812" stroke="#E50068" stroke-width="3"/>
<circle cx="104.843" cy="83.1646" r="5.77812" stroke="#E50068" stroke-width="3"/>
</svg>
