<svg width="105" height="105" viewBox="0 0 105 105" fill="none" xmlns="http://www.w3.org/2000/svg">
<path d="M102.903 44.9252C101.815 43.2835 100.167 42.1522 98.2511 41.7233C99.4872 39.3591 99.4368 36.4092 97.8623 34.0321C96.7421 32.34 95.0524 31.2471 93.213 30.8334C93.541 30.2078 93.7835 29.5325 93.9283 28.8204C94.3299 26.8402 93.9379 24.8224 92.8218 23.1383C91.7344 21.4957 90.0863 20.3644 88.1701 19.9363C89.4062 17.5721 89.3558 14.6222 87.7812 12.2444C85.4794 8.76801 80.7765 7.81191 77.2994 10.1145L69.7706 15.1006C65.7574 13.0652 61.489 11.6211 57.059 10.7986C55.6588 8.6728 54.0307 6.6966 52.2081 4.93002L49.0934 1.91132C46.8123 -0.300105 43.2352 -0.632139 40.5869 1.12244C37.4538 3.19705 36.5929 7.43427 38.6675 10.5674C38.7491 10.6914 38.8291 10.8162 38.9083 10.941C28.6985 13.0068 19.3936 18.425 12.5065 26.3642C5.03292 34.9802 0.916504 46.015 0.916504 57.4353C0.916504 59.6243 1.06612 61.8173 1.36215 63.952C3.64318 80.5464 14.6971 94.8471 30.2091 101.274C35.9616 103.658 42.0654 104.868 48.3485 104.868C58.2991 104.868 67.824 101.821 75.8945 96.056C83.7896 90.4154 89.6966 82.6314 92.9778 73.5457C93.2842 72.6992 92.845 71.7639 91.9985 71.4583C91.1512 71.1527 90.2167 71.5911 89.9111 72.4384C86.8556 80.8993 81.3534 88.148 73.9983 93.4021C66.4847 98.7699 57.615 101.607 48.3485 101.607C43.5576 101.607 38.8795 100.851 34.4023 99.3595L47.6692 90.5738C47.67 90.573 47.6708 90.573 47.6716 90.5722C47.6724 90.5722 47.6724 90.5714 47.6732 90.5706L58.6991 83.2691H58.6999C59.6896 82.613 60.3657 81.6113 60.6025 80.4472C60.8393 79.2831 60.6089 78.0958 59.9528 77.1061L59.8072 76.8853L61.949 75.4667C63.4772 74.4546 65.315 74.0578 67.1248 74.3482C69.745 74.769 72.4061 74.193 74.6175 72.728L92.3825 60.9637C92.2609 62.5046 92.0609 64.0368 91.7817 65.5433C91.6168 66.429 92.2017 67.2803 93.0874 67.4443C93.1874 67.4635 93.2882 67.4723 93.3866 67.4723C94.1571 67.4723 94.842 66.9235 94.9876 66.1386C95.4396 63.7071 95.6996 61.2165 95.7669 58.7226L100.773 55.4071C102.457 54.2918 103.607 52.5868 104.008 50.6074C104.411 48.6272 104.018 46.6094 102.903 44.9252ZM66.6047 17.1969L61.6226 20.4964L60.6417 17.8537C60.2321 16.7512 59.7624 15.6703 59.2424 14.6126C61.7698 15.2535 64.2309 16.1175 66.6047 17.1969ZM14.9699 28.5012C21.589 20.8708 30.6051 15.7415 40.4685 13.9629C42.051 17.7969 42.4303 22.0805 41.4846 26.1634L37.509 43.3387C36.8841 42.6714 36.0728 42.2114 35.1591 42.0258C33.9942 41.7881 32.8077 42.0194 31.818 42.6754L20.5569 50.1322C20.5561 50.1322 20.5561 50.1322 20.5553 50.133C20.5553 50.133 20.5545 50.133 20.5545 50.1338L4.31285 60.8893C4.22404 59.7435 4.17763 58.589 4.17763 57.4353C4.17763 46.8006 8.01082 36.5244 14.9699 28.5012ZM57.407 79.7968C57.3438 80.1072 57.163 80.3752 56.8981 80.5504H56.8989L47.2148 86.9631L29.241 60.158C28.7393 59.4099 27.7264 59.2107 26.9783 59.7123C26.2311 60.214 26.031 61.2261 26.5327 61.9742L44.4953 88.7641L30.6707 97.9194C16.9333 91.9108 7.10273 79.2215 4.73929 64.456L21.0001 53.7229L22.8715 56.5152C23.1867 56.9841 23.702 57.2377 24.2276 57.2377C24.5397 57.2377 24.8557 57.1489 25.1341 56.9617C25.8822 56.46 26.0822 55.4471 25.5806 54.699L23.722 51.9268L33.619 45.3941C33.8822 45.2189 34.1983 45.1581 34.5087 45.2213C34.8191 45.2845 35.0871 45.4653 35.2624 45.7293L57.2342 78.9071C57.4086 79.1703 57.4702 79.4863 57.407 79.7968ZM100.813 49.9577C100.584 51.0843 99.9305 52.054 98.972 52.6884L93.249 56.4784C93.2474 56.4792 93.2458 56.4808 93.2434 56.4816L72.8165 70.0094C71.2884 71.0215 69.4506 71.4191 67.6408 71.1279C65.0214 70.7078 62.3603 71.2831 60.1481 72.748L58.0063 74.1666L40.0108 46.9935L44.6625 26.8994C45.8602 21.7229 45.229 16.2704 42.9471 11.5203C42.9263 11.4707 42.9039 11.4227 42.8783 11.3755C42.4399 10.4778 41.9422 9.60649 41.3862 8.76641C40.3045 7.13264 40.7533 4.92362 42.3879 3.84111C43.7688 2.92662 45.6346 3.09944 46.8235 4.25235L49.9382 7.27186C53.3074 10.5386 55.9516 14.5902 57.5838 18.989L59.28 23.5583C59.2832 23.5671 59.2864 23.5743 59.2896 23.5823C59.2936 23.5927 59.2984 23.6039 59.3024 23.6143C59.3144 23.6423 59.3256 23.6679 59.3376 23.6895C59.3704 23.7583 59.4064 23.8263 59.4496 23.8911C59.9472 24.6424 60.9585 24.848 61.709 24.3504L79.1004 12.834C81.0782 11.5243 83.7528 12.0675 85.0626 14.0453C86.3723 16.0231 85.829 18.6978 83.8512 20.0075L82.3415 21.0076C82.3415 21.0076 82.3407 21.0076 82.3399 21.0084L78.9724 23.2391C78.9676 23.2423 78.9644 23.2455 78.9596 23.2479C78.9404 23.2615 78.922 23.2743 78.9068 23.2871C78.2107 23.7983 78.0307 24.7704 78.5131 25.4985C79.01 26.2498 80.0221 26.4554 80.7733 25.9577L84.1433 23.7255C85.101 23.0926 86.2475 22.8694 87.3732 23.0982C88.4989 23.3271 89.4694 23.9807 90.1031 24.9392C90.7375 25.8969 90.9616 27.045 90.7327 28.1708C90.5039 29.2973 89.8503 30.267 88.8918 30.9014L84.0129 34.133C83.2616 34.6298 83.056 35.6411 83.5536 36.3924C83.8673 36.866 84.3857 37.1229 84.9146 37.1229C85.2234 37.1229 85.5362 37.0349 85.813 36.8516L86.5683 36.3516L89.1814 34.621C91.16 33.3113 93.8339 33.8545 95.1436 35.8323C96.4533 37.8109 95.9101 40.4848 93.9323 41.7953L91.4952 43.4091C91.4824 43.4171 91.4696 43.4259 91.4568 43.4347L89.0534 45.0261C88.3021 45.5229 88.0965 46.535 88.5941 47.2863C88.9078 47.7599 89.4262 48.0168 89.9551 48.0168C90.2639 48.0168 90.5767 47.9287 90.8536 47.7455L91.6088 47.2455C91.6088 47.2455 91.6088 47.2447 91.6096 47.2447L94.2227 45.5149C95.1804 44.8804 96.3277 44.6564 97.4542 44.886C98.5807 45.1141 99.5504 45.7685 100.185 46.7262C100.819 47.6839 101.042 48.832 100.813 49.9577Z" fill="#E50068"/>
</svg>
