<svg width="23" height="22" viewBox="0 0 23 22" fill="none" xmlns="http://www.w3.org/2000/svg">
<g clip-path="url(#clip0)">
<path d="M15.2461 11.1128L23 15.8016V6.22607L15.2461 11.1128Z" fill="#E50068"/>
<path d="M0 6.22607V15.8016L7.75388 11.1128L0 6.22607Z" fill="#E50068"/>
<path d="M21.5626 3.4375H1.43759C0.720275 3.4375 0.151025 3.949 0.0432129 4.60763L11.5001 11.8278L22.957 4.60763C22.8491 3.949 22.2799 3.4375 21.5626 3.4375Z" fill="#E50068"/>
<path d="M13.9293 11.9433L11.8952 13.2248C11.7745 13.3004 11.6379 13.3375 11.4999 13.3375C11.3619 13.3375 11.2253 13.3004 11.1046 13.2248L9.07052 11.9419L0.0458984 17.402C0.156586 18.0551 0.722961 18.5625 1.4374 18.5625H21.5624C22.2768 18.5625 22.8432 18.0551 22.9539 17.402L13.9293 11.9433Z" fill="#E50068"/>
</g>
<defs>
<clipPath id="clip0">
<rect width="23" height="22" fill="white"/>
</clipPath>
</defs>
</svg>
