<svg width="35" height="41" viewBox="0 0 35 41" fill="none" xmlns="http://www.w3.org/2000/svg">
<path d="M13.3201 2.86853C11.9299 2.86853 10.7988 3.99956 10.7988 5.38976C10.7988 6.78004 11.9299 7.91099 13.3201 7.91099C14.7103 7.91099 15.8413 6.77996 15.8413 5.38976C15.8414 3.99956 14.7103 2.86853 13.3201 2.86853ZM13.3201 6.71993C12.5866 6.71993 11.9899 6.12321 11.9899 5.38976C11.9899 4.65631 12.5866 4.05959 13.3201 4.05959C14.0535 4.05959 14.6502 4.65631 14.6502 5.38976C14.6502 6.12321 14.0536 6.71993 13.3201 6.71993Z" fill="white"/>
<path d="M6.49975 2.86853C5.10954 2.86853 3.97852 3.99956 3.97852 5.38976C3.97852 6.78004 5.10954 7.91099 6.49975 7.91099C7.88995 7.91099 9.02098 6.77996 9.02098 5.38976C9.02098 3.99956 7.88995 2.86853 6.49975 2.86853ZM6.49975 6.71993C5.76629 6.71993 5.16957 6.12321 5.16957 5.38976C5.16957 4.65631 5.76629 4.05959 6.49975 4.05959C7.2332 4.05959 7.82992 4.65631 7.82992 5.38976C7.82992 6.12321 7.2332 6.71993 6.49975 6.71993Z" fill="white"/>
<path d="M28.3638 2.86853H21.5139C20.7653 2.86853 20.1562 3.47756 20.1562 4.22618V6.55342C20.1562 7.30204 20.7653 7.91107 21.5139 7.91107H28.3638C29.1124 7.91107 29.7215 7.30204 29.7215 6.55342V4.22618C29.7215 3.47756 29.1124 2.86853 28.3638 2.86853ZM28.5304 6.55342C28.5304 6.64529 28.4557 6.72001 28.3638 6.72001H21.5139C21.422 6.72001 21.3473 6.64529 21.3473 6.55342V4.22618C21.3473 4.13431 21.422 4.05959 21.5139 4.05959H28.3638C28.4557 4.05959 28.5304 4.13431 28.5304 4.22618V6.55342Z" fill="white"/>
<path d="M17.3311 12.1994C14.8884 12.1994 12.5772 12.987 10.6472 14.4771C10.3869 14.6781 10.3388 15.0521 10.5398 15.3125C10.7409 15.5728 11.1149 15.6209 11.3751 15.4199C13.0947 14.0922 15.1542 13.3904 17.3311 13.3904C22.7102 13.3904 27.0864 17.7666 27.0864 23.1457C27.0864 28.5247 22.7102 32.9009 17.3311 32.9009C11.9521 32.9009 7.5759 28.5246 7.5759 23.1457C7.5759 20.9067 8.35374 18.7195 9.7661 16.9869C9.9739 16.7319 9.9357 16.3568 9.68074 16.149C9.42577 15.9412 9.05067 15.9794 8.84287 16.2343C7.25781 18.1788 6.38477 20.6333 6.38477 23.1457C6.38477 29.1815 11.2953 34.092 17.3311 34.092C23.3669 34.092 28.2774 29.1815 28.2774 23.1457C28.2774 17.1099 23.3669 12.1994 17.3311 12.1994Z" fill="white"/>
<path d="M34.6634 36.0317V4.57699C34.6634 2.05322 32.6105 0 30.0872 0H4.5762C2.05291 0 0 2.05322 0 4.57699V36.0786C0 38.6019 2.05291 40.6548 4.57612 40.6548H30.0871C32.5878 40.6548 34.6252 38.6382 34.6616 36.146C34.6642 36.1239 34.6646 36.0473 34.6634 36.0317ZM33.4724 35.483H28.5422C28.2133 35.483 27.9467 35.7497 27.9467 36.0786C27.9467 36.4074 28.2133 36.6741 28.5422 36.6741H33.42C33.1377 38.2577 31.7507 39.4637 30.0872 39.4637H4.5762C2.91277 39.4637 1.52574 38.2577 1.24354 36.6742H26.16C26.4889 36.6742 26.7555 36.4075 26.7555 36.0786C26.7555 35.7497 26.4889 35.4831 26.16 35.4831H1.19114V10.7795H33.4724V35.483ZM33.4724 9.58857H1.19106V4.57699C1.19106 2.70997 2.70966 1.19106 4.5762 1.19106H30.0872C31.9538 1.19106 33.4724 2.70997 33.4724 4.57699V9.58857Z" fill="white"/>
<path d="M17.3324 14.9678C12.823 14.9678 9.1543 18.6365 9.1543 23.1458C9.15438 23.5426 9.18288 23.9395 9.23918 24.3254C9.23918 24.3257 9.23934 24.326 9.23934 24.3263C9.51781 26.2526 10.4826 28.0219 11.9563 29.3085C13.4449 30.6081 15.3541 31.3238 17.3323 31.3238C19.3105 31.3238 21.2198 30.6081 22.7085 29.3085C24.182 28.022 25.1468 26.2529 25.4253 24.3267C25.4254 24.3263 25.4255 24.3259 25.4256 24.3255C25.4819 23.9399 25.5105 23.543 25.5105 23.1458C25.5105 18.6364 21.8418 14.9678 17.3324 14.9678ZM21.9251 28.4112C20.6535 29.5214 19.0224 30.1328 17.3323 30.1328C15.6422 30.1328 14.0112 29.5214 12.7396 28.4112C11.5729 27.3926 10.7794 26.0206 10.4799 24.5163L10.8471 24.2664C11.4607 23.8489 12.2911 23.8486 12.9052 24.2664C13.919 24.9563 15.2892 24.9565 16.3033 24.2664C16.9159 23.8498 17.7487 23.8495 18.3613 24.2664C19.3756 24.9565 20.7453 24.9564 21.7597 24.2663C22.3748 23.8479 23.2027 23.8477 23.8174 24.2664L24.1847 24.5163C23.8854 26.0205 23.092 27.3926 21.9251 28.4112ZM24.3193 23.1749C24.3151 23.1724 24.3107 23.1703 24.3064 23.1678C23.9867 22.9818 23.6373 22.8622 23.2737 22.7983C22.8187 22.7182 22.3395 22.7555 21.8987 22.8915C21.6113 22.9802 21.3379 23.1124 21.0894 23.2817C20.4752 23.6996 19.6447 23.6989 19.0313 23.2817C18.5278 22.9391 17.9403 22.758 17.3323 22.758C16.7282 22.758 16.1327 22.9419 15.6333 23.2816C15.018 23.7 14.1901 23.6998 13.5752 23.2816C13.0717 22.939 12.4842 22.7579 11.8762 22.7579C11.3485 22.7579 10.8138 22.9002 10.3583 23.1679C10.3541 23.1703 10.3496 23.1724 10.3454 23.1749C10.3454 23.1651 10.3454 23.1554 10.3454 23.1456C10.3454 19.2931 13.4797 16.1588 17.3324 16.1588C21.1851 16.1588 24.3194 19.2931 24.3194 23.1457C24.3194 23.1554 24.3194 23.1652 24.3193 23.1749Z" fill="white"/>
</svg>
