<svg width="35" height="44" viewBox="0 0 35 44" fill="none" xmlns="http://www.w3.org/2000/svg">
<path d="M12.4181 37.8656C8.17413 36.546 5.3227 32.6705 5.3227 28.2218C5.3227 26.0473 6.00344 23.9756 7.29143 22.2306C7.32081 22.1908 7.34735 22.1473 7.36949 22.103C7.58231 21.6775 7.40947 21.1606 6.98385 20.9478C6.59863 20.7549 6.13785 20.8788 5.89609 21.2195C4.39374 23.2604 3.59961 25.6815 3.59961 28.2218C3.59961 30.7943 4.41192 33.2403 5.94865 35.295C7.43403 37.281 9.54983 38.7784 11.9065 39.5111C11.9917 39.5376 12.0778 39.5502 12.1625 39.5502C12.5298 39.5502 12.8702 39.3134 12.985 38.9442C13.1263 38.4898 12.8725 38.0069 12.4181 37.8656Z" fill="white"/>
<path d="M34.5034 20.1335C34.5034 18.4935 33.9923 16.931 33.0251 15.6133L27.5711 7.51685C27.411 7.27914 27.1432 7.13663 26.8565 7.13663C26.5699 7.13663 26.3021 7.27914 26.1419 7.51685L23.8437 10.9285L16.7378 0.380219C16.5778 0.142507 16.3099 0 16.0233 0C15.7368 0 15.4689 0.142507 15.3088 0.380219L3.11077 18.4876C1.07552 21.2534 0 24.534 0 27.9767C0 36.8119 7.18807 44 16.0233 44C24.8586 44 32.0466 36.8119 32.0466 27.9767C32.0466 27.2714 31.9995 26.5648 31.9079 25.8692C33.4983 24.4669 34.5034 22.4155 34.5034 20.1335ZM26.8565 9.54038L31.5957 16.5756C31.6052 16.5903 31.6152 16.6046 31.6256 16.6188C32.3809 17.6417 32.7802 18.8571 32.7802 20.1335C32.7802 23.3997 30.1229 26.0571 26.8565 26.0571C23.5902 26.0571 20.9329 23.3997 20.9329 20.1335C20.9329 18.8571 21.3322 17.6417 22.0875 16.6188C22.0975 16.6052 22.1071 16.5915 22.1163 16.5772L24.5566 12.9547C24.5611 12.9481 24.5657 12.9415 24.57 12.9347L26.8565 9.54038ZM30.3234 27.9767C30.3234 35.8619 23.9083 42.2768 16.0232 42.2768C8.13806 42.2768 1.72309 35.8619 1.72309 27.9767C1.72309 24.897 2.68721 21.9629 4.51137 19.4917C4.52179 19.4776 4.53187 19.4629 4.54161 19.4478L16.0233 2.40366L22.805 12.4706L20.688 15.6134C19.7208 16.931 19.2097 18.4936 19.2097 20.1335C19.2097 24.35 22.6401 27.7803 26.8565 27.7803C28.0895 27.7803 29.2549 27.4866 30.2873 26.9661C30.3108 27.3021 30.3234 27.6395 30.3234 27.9767Z" fill="white"/>
<path d="M23.8189 19.9234C23.8189 19.5059 23.9039 19.1031 24.0716 18.7259C24.2649 18.2911 24.0691 17.7819 23.6343 17.5886C23.1995 17.3956 22.6904 17.5911 22.497 18.0259C22.2307 18.6249 22.0957 19.2632 22.0957 19.9234C22.0957 21.4871 22.8725 22.9406 24.1736 23.8111C24.3208 23.9096 24.4872 23.9567 24.652 23.9567C24.9299 23.9567 25.2027 23.8224 25.3688 23.5742C25.6334 23.1786 25.5273 22.6435 25.1319 22.3789C24.3097 21.8288 23.8189 20.9108 23.8189 19.9234Z" fill="white"/>
<path d="M15.614 39.0593C15.4031 38.5049 14.6161 38.3468 14.2087 38.7801C13.7238 39.2501 13.9848 40.1131 14.6499 40.2336C15.3093 40.3781 15.884 39.6782 15.614 39.0593Z" fill="white"/>
<path d="M26.4035 24.5966C26.9591 24.9814 27.7546 24.5559 27.7433 23.8806C27.7558 23.2052 26.9586 22.7789 26.4035 23.1638C25.9003 23.4791 25.8984 24.2823 26.4035 24.5966Z" fill="white"/>
</svg>
