<svg width="46" height="41" viewBox="0 0 46 41" fill="none" xmlns="http://www.w3.org/2000/svg">
<path d="M11.8076 27.067C11.1609 26.5559 10.3502 26.2744 9.52508 26.2744C8.4037 26.2744 7.35945 26.7727 6.66004 27.6417C6.04847 28.4023 5.77157 29.354 5.88071 30.3211C5.99 31.2904 6.47349 32.1585 7.24196 32.7659C7.88875 33.2771 8.69912 33.5586 9.5241 33.5586C10.6463 33.5586 11.6907 33.0594 12.3896 32.1895C13.0006 31.4301 13.2772 30.4796 13.1685 29.5129C13.0595 28.5436 12.5763 27.6749 11.8076 27.067ZM11.0875 31.1428C10.7072 31.6164 10.1372 31.8881 9.5241 31.8881C9.06706 31.8881 8.63605 31.7385 8.27799 31.4555C7.8616 31.1264 7.59988 30.6571 7.54071 30.1339C7.48196 29.6128 7.63148 29.0994 7.96156 28.689C8.34203 28.2162 8.91198 27.945 9.52508 27.945C9.98254 27.945 10.4137 28.0947 10.7716 28.3776C11.1879 28.7067 11.4494 29.1762 11.5083 29.6997C11.5669 30.2204 11.4177 30.7327 11.0875 31.1428Z" fill="white"/>
<path d="M26.4964 18.5117C27.0474 18.5117 27.5802 18.391 28.0812 18.1522C28.9669 17.7284 29.6322 16.9871 29.9542 16.0647C30.2746 15.1481 30.2169 14.1617 29.7923 13.2882C29.1849 12.0361 27.8877 11.227 26.4876 11.227C25.9355 11.227 25.4016 11.3481 24.9007 11.5871C24.0153 12.0095 23.3497 12.7502 23.0272 13.673C22.7063 14.5903 22.7638 15.5767 23.1891 16.4507C23.7984 17.7027 25.0966 18.5117 26.4964 18.5117ZM24.6039 14.2244C24.7785 13.7253 25.1393 13.3241 25.6199 13.0948C25.8944 12.9639 26.1862 12.8975 26.4875 12.8975C27.2519 12.8975 27.9591 13.337 28.2894 14.0179C28.5184 14.489 28.5494 15.0201 28.3771 15.5138C28.2026 16.0132 27.8414 16.4149 27.3614 16.6446C27.0878 16.7751 26.7967 16.8411 26.4963 16.8411C25.7311 16.8411 25.0225 16.4009 24.6909 15.7197C24.4622 15.2493 24.4313 14.7183 24.6039 14.2244Z" fill="white"/>
<path d="M17.4088 12.6086C17.6775 12.6693 17.9524 12.7 18.226 12.7C19.9456 12.7 21.4147 11.537 21.7989 9.8702C22.0149 8.92507 21.8488 7.9521 21.3317 7.13017C20.8104 6.30184 19.9956 5.72605 19.038 5.50916C18.7682 5.4479 18.4922 5.41672 18.2174 5.41672C16.4989 5.41672 15.0313 6.58097 14.6483 8.24751C14.4306 9.19195 14.5955 10.1651 15.1127 10.9875C15.6345 11.817 16.4502 12.3928 17.4088 12.6086ZM16.2764 8.62228C16.484 7.71863 17.2823 7.08743 18.2174 7.08743C18.3676 7.08743 18.5192 7.10456 18.6683 7.13839C19.1906 7.25672 19.6343 7.56981 19.9177 8.02004C20.197 8.46371 20.2867 8.98855 20.1705 9.49641C19.9658 10.3847 19.1479 11.0294 18.2259 11.0294C18.0761 11.0294 17.925 11.0125 17.7763 10.9789C17.2539 10.8613 16.8102 10.5485 16.5269 10.0982C16.2482 9.65484 16.1592 9.13083 16.2764 8.62228Z" fill="white"/>
<path d="M10.7692 14.6925C11.5369 14.0842 12.0195 13.2154 12.1287 12.246C12.2374 11.2796 11.9613 10.329 11.3501 9.56824C10.6495 8.69968 9.60444 8.20157 8.48306 8.20157C7.65877 8.20157 6.84896 8.48223 6.20203 8.99245C5.43426 9.59887 4.95132 10.4663 4.84176 11.435C4.73234 12.4027 5.00909 13.3549 5.6215 14.1169C6.32147 14.9865 7.3667 15.4853 8.48933 15.4853C9.31431 15.4852 10.1241 15.2037 10.7692 14.6925ZM6.92344 13.0696C6.59266 12.6581 6.44301 12.1441 6.50203 11.6224C6.56106 11.0999 6.82251 10.6313 7.23737 10.3034C7.59529 10.0211 8.02616 9.87187 8.4832 9.87187C9.09686 9.87187 9.66806 10.1433 10.0488 10.6154C10.3781 11.0255 10.5273 11.5383 10.4687 12.0591C10.4098 12.5831 10.1481 13.0533 9.73196 13.383C9.37571 13.6652 8.94595 13.8144 8.48947 13.8144C7.87511 13.8146 7.30433 13.5428 6.92344 13.0696Z" fill="white"/>
<path d="M44.9309 6.5186C44.7865 6.37298 44.529 6.19938 44.1226 6.19938C43.6461 6.19938 42.3802 6.19938 34.6922 12.7414C34.5377 12.8728 34.3818 13.006 34.2253 13.1402C32.8516 9.55696 30.4382 6.3624 27.3283 4.05171C23.7624 1.40231 19.5164 0.00111372 15.0495 0C15.0482 0 15.0472 0 15.0461 0C12.0315 0 8.36709 1.0533 5.48242 2.74935C1.94636 4.82811 -0.000695888 7.60823 1.8657e-07 10.5773C0.00111391 14.1618 2.02279 15.6611 3.64729 16.8657C4.97192 17.8482 6.01812 18.624 6.01868 20.3244C6.01909 22.0246 4.97345 22.7998 3.64952 23.7812C2.02558 24.9852 0.00431585 26.4837 0.00542957 30.0686C0.00626486 33.0372 1.95458 35.818 5.49133 37.8986C8.37809 39.5967 12.0445 40.6523 15.0596 40.6531C15.0617 40.6531 15.0635 40.6531 15.0654 40.6531C20.5373 40.6531 25.6811 38.5411 29.5499 34.7058C33.3694 30.9196 35.4937 25.9011 35.5495 20.5531C36.8464 19.0773 38.1028 17.6104 39.2498 16.2281C41.2122 13.8634 42.7211 11.9122 43.7348 10.4289C45.0776 8.46412 45.6657 7.25908 44.9309 6.5186ZM28.3739 33.5195C24.8199 37.0427 20.0941 38.9825 15.0656 38.9825C15.064 38.9825 15.0618 38.9825 15.0603 38.9825C9.67167 38.981 1.67754 35.2372 1.67601 30.068C1.67517 27.3245 3.11744 26.2552 4.64449 25.1231C6.07186 24.0648 7.68967 22.8653 7.68912 20.3238C7.68828 17.7828 6.07005 16.5826 4.64226 15.5238C3.11451 14.3908 1.67141 13.3206 1.67058 10.5768C1.66988 7.40261 4.58894 5.21248 6.32913 4.18939C8.93217 2.659 12.3534 1.67044 15.0461 1.67044C15.047 1.67044 15.0482 1.67044 15.049 1.67044C19.1546 1.67155 23.0562 2.95873 26.3321 5.39249C29.3533 7.63733 31.6595 10.7886 32.8743 14.3091C29.2513 17.4726 25.3279 21.12 22.4061 24.0513C17.5532 24.6795 16.8921 27.9137 16.4087 30.2897C15.9972 32.3127 15.73 33.2909 14.1685 33.4162C13.7837 33.4471 13.4703 33.7375 13.4103 34.1188C13.3501 34.5 13.5591 34.8728 13.9158 35.0205C14.0162 35.062 16.4045 36.0379 19.1949 36.038C19.1954 36.038 19.1956 36.038 19.1959 36.038C21.1405 36.038 22.8085 35.5666 24.1536 34.6371C25.8111 33.4916 26.935 31.6756 27.4998 29.2401C29.4089 27.3087 31.5902 24.9796 33.7472 22.5805C33.2508 26.711 31.3868 30.5327 28.3739 33.5195ZM25.8216 29.082C24.9364 32.5896 22.7093 34.3677 19.1958 34.3676C19.1958 34.3676 19.1952 34.3676 19.1949 34.3676C18.2685 34.3676 17.3813 34.2411 16.6353 34.0836C17.5263 33.1749 17.8046 31.8075 18.0456 30.623C18.5046 28.3666 18.9387 26.2311 22.4897 25.7238L25.8216 29.082ZM37.3564 15.89C34.0451 19.8349 30.0371 24.265 26.7377 27.6333L26.227 27.1185L23.9732 24.8469C26.9647 21.8691 30.8023 18.3184 34.3827 15.211C34.8001 14.8488 35.2148 14.4912 35.6236 14.1426C39.7787 10.5988 41.9563 9.05662 43.0671 8.38547C42.4037 9.50295 40.8757 11.6971 37.3564 15.89Z" fill="white"/>
</svg>
