<svg width="103" height="107" viewBox="0 0 103 107" fill="none" xmlns="http://www.w3.org/2000/svg">
<path d="M65.3723 95.3281L75.4766 103.116C76.2717 103.729 77.398 103.657 78.1092 102.949L99.4204 81.7155" stroke="#E50068" stroke-width="6" stroke-linecap="round"/>
<path d="M0.340576 23.1527H82.7369" stroke="#E50068" stroke-width="3"/>
<rect x="1.5" y="1.5" width="80.0773" height="101.868" rx="8.5" stroke="#E50068" stroke-width="3"/>
<circle cx="41.5386" cy="62.6484" r="26.4194" stroke="#E50068" stroke-width="3"/>
<circle cx="41.8791" cy="62.3079" r="17.9074" stroke="#E50068" stroke-width="3"/>
<circle cx="10.8954" cy="12.2573" r="3.94769" stroke="#E50068" stroke-width="3"/>
<path d="M41.1982 73.8843C45.1705 73.4303 52.9789 70.2752 52.4341 61.2865" stroke="#E50068" stroke-width="3" stroke-linecap="round" stroke-linejoin="round"/>
<path d="M49.309 19.205C50.1374 19.205 50.809 18.5334 50.809 17.705C50.809 16.8765 50.1374 16.205 49.309 16.205V19.205ZM60.5663 16.205C59.7379 16.205 59.0663 16.8765 59.0663 17.705C59.0663 18.5334 59.7379 19.205 60.5663 19.205V16.205ZM53.4759 16.205C52.6475 16.205 51.9759 16.8765 51.9759 17.705C51.9759 18.5334 52.6475 19.205 53.4759 19.205V16.205ZM56.2539 19.205C57.0823 19.205 57.7539 18.5334 57.7539 17.705C57.7539 16.8765 57.0823 16.205 56.2539 16.205V19.205ZM46.9865 8.30957H70.1392V5.30957H46.9865V8.30957ZM49.309 16.205H46.9865V19.205H49.309V16.205ZM70.1392 16.205H65.5732V19.205H70.1392V16.205ZM65.5732 16.205H60.5663V19.205H65.5732V16.205ZM53.4759 19.205H56.2539V16.205H53.4759V19.205ZM40.0388 12.2573C40.0388 16.0944 43.1494 19.205 46.9865 19.205V16.205C44.8063 16.205 43.0388 14.4375 43.0388 12.2573H40.0388ZM74.0869 12.2573C74.0869 14.4375 72.3195 16.205 70.1392 16.205V19.205C73.9763 19.205 77.0869 16.0944 77.0869 12.2573H74.0869ZM70.1392 8.30957C72.3195 8.30957 74.0869 10.077 74.0869 12.2573H77.0869C77.0869 8.42016 73.9763 5.30957 70.1392 5.30957V8.30957ZM46.9865 5.30957C43.1494 5.30957 40.0388 8.42016 40.0388 12.2573H43.0388C43.0388 10.077 44.8063 8.30957 46.9865 8.30957V5.30957Z" fill="#E50068"/>
</svg>
