<svg width="23" height="23" viewBox="0 0 23 23" fill="none" xmlns="http://www.w3.org/2000/svg">
<g clip-path="url(#clip0)">
<path d="M11.5 0C6.74475 0 2.875 3.89658 2.875 8.68729C2.875 15.4943 10.6892 22.5227 11.0218 22.8179C11.1588 22.9396 11.3294 23 11.5 23C11.6706 23 11.8412 22.9396 11.9782 22.8189C12.3107 22.5228 20.125 15.4943 20.125 8.68729C20.125 3.89658 16.2552 0 11.5 0ZM11.5 13.4167C8.85787 13.4167 6.70833 11.2671 6.70833 8.625C6.70833 5.98287 8.85787 3.83333 11.5 3.83333C14.1421 3.83333 16.2917 5.98287 16.2917 8.625C16.2917 11.2671 14.1421 13.4167 11.5 13.4167Z" fill="#E50068"/>
</g>
<defs>
<clipPath id="clip0">
<rect width="23" height="23" fill="white"/>
</clipPath>
</defs>
</svg>
