<svg width="122" height="100" viewBox="0 0 122 100" fill="none" xmlns="http://www.w3.org/2000/svg">
<mask id="path-1-inside-1" fill="white">
<path d="M71.998 38.9922L61.1069 28.1011L51.3813 37.5323C48.96 39.8804 45.1024 39.8507 42.7174 37.4658C40.3063 35.0546 40.3063 31.1454 42.7174 28.7343L54.4592 16.9925C55.6857 15.766 57.3491 15.077 59.0836 15.077L86.5286 15.077L105.591 48.0037L93.114 60.1082L71.998 38.9922Z"/>
</mask>
<path d="M79.2775 26.3601C79.0008 25.5793 78.1434 25.1707 77.3626 25.4474C76.5817 25.7242 76.1731 26.5816 76.4499 27.3624L79.2775 26.3601ZM76.4499 27.3624C76.8259 28.4231 77.0665 30.2893 76.4599 32.2274C75.8723 34.1049 74.4606 36.1508 71.3505 37.6391L72.6455 40.3452C76.4884 38.5062 78.4805 35.8152 79.323 33.1235C80.1464 30.4923 79.8434 27.9567 79.2775 26.3601L76.4499 27.3624ZM61.1069 28.1011L63.2282 25.9798L61.1392 23.8908L59.0184 25.9474L61.1069 28.1011ZM51.3813 37.5323L49.2928 35.3786L51.3813 37.5323ZM59.0836 15.077L59.0836 18.077L59.0836 18.077L59.0836 15.077ZM86.5286 15.077L89.1249 13.5739L88.2583 12.077L86.5286 12.077L86.5286 15.077ZM105.591 48.0037L107.68 50.1569L109.361 48.5267L108.188 46.5006L105.591 48.0037ZM93.114 60.1082L90.9927 62.2295L93.082 64.3189L95.2029 62.2614L93.114 60.1082ZM58.9856 30.2224L69.8766 41.1135L74.1193 36.8708L63.2282 25.9798L58.9856 30.2224ZM59.0184 25.9474L49.2928 35.3786L53.4698 39.686L63.1954 30.2548L59.0184 25.9474ZM44.8387 30.8556L56.5805 19.1138L52.3379 14.8711L40.5961 26.6129L44.8387 30.8556ZM59.0836 18.077L86.5286 18.077L86.5286 12.077L59.0836 12.077L59.0836 18.077ZM83.9323 16.5801L102.995 49.5068L108.188 46.5006L89.1249 13.5739L83.9323 16.5801ZM69.8766 41.1135L90.9927 62.2295L95.2353 57.9868L74.1193 36.8708L69.8766 41.1135ZM103.503 45.8504L91.0251 57.9549L95.2029 62.2614L107.68 50.1569L103.503 45.8504ZM56.5805 19.1138C57.2444 18.4499 58.1448 18.077 59.0836 18.077L59.0836 12.077C56.5535 12.077 54.127 13.0821 52.3379 14.8711L56.5805 19.1138ZM44.8387 35.3444C43.5992 34.1049 43.5992 32.0951 44.8387 30.8556L40.5961 26.6129C37.0134 30.1956 37.0134 36.0044 40.5961 39.5871L44.8387 35.3444ZM49.2928 35.3786C48.048 36.5858 46.0648 36.5705 44.8387 35.3444L40.5961 39.5871C44.1399 43.1309 49.8719 43.1749 53.4698 39.686L49.2928 35.3786Z" fill="#E50068" mask="url(#path-1-inside-1)"/>
<path d="M57.1572 56.1304C56.5714 55.5446 55.6217 55.5446 55.0359 56.1304C54.4501 56.7162 54.4501 57.6659 55.0359 58.2517L57.1572 56.1304ZM89.4224 73.8292L90.543 72.8321L89.4224 73.8292ZM81.8963 80.8694L57.1572 56.1304L55.0359 58.2517L79.7749 82.9907L81.8963 80.8694ZM86.4477 72.7427L88.3018 74.8264L90.543 72.8321L88.6889 70.7484L86.4477 72.7427ZM88.1259 80.8694C86.4056 82.5897 83.6165 82.5897 81.8963 80.8694L79.7749 82.9907C82.6668 85.8825 87.3554 85.8825 90.2472 82.9907L88.1259 80.8694ZM90.2472 82.9907C93.0206 80.2173 93.1504 75.7623 90.543 72.8321L88.3018 74.8264C89.8529 76.5694 89.7757 79.2196 88.1259 80.8694L90.2472 82.9907Z" fill="#E50068"/>
<path d="M68.0363 50.1086C67.4506 49.5228 66.5008 49.5228 65.915 50.1086C65.3292 50.6943 65.3292 51.6441 65.915 52.2299L68.0363 50.1086ZM98.985 65.1812L100.189 64.2863L98.985 65.1812ZM100.824 67.6509L102.026 66.7539L102.026 66.7539L100.824 67.6509ZM92.5938 74.666L68.0363 50.1086L65.915 52.2299L90.4725 76.7873L92.5938 74.666ZM97.7812 66.0761C98.4513 66.9775 99.0675 67.8047 99.622 68.5479L102.026 66.7539C101.473 66.0121 100.858 65.1862 100.189 64.2863L97.7812 66.0761ZM100.189 64.2863C98.6069 62.1584 97.887 61.3439 97.1722 60.5369C96.5032 59.7816 95.8393 59.0338 94.3175 56.9868L91.91 58.7766C93.4918 60.9045 94.2117 61.719 94.9265 62.526C95.5955 63.2813 96.2594 64.0291 97.7812 66.0761L100.189 64.2863ZM99.1865 74.666C97.366 76.4866 94.4143 76.4866 92.5938 74.666L90.4725 76.7873C93.4646 79.7794 98.3158 79.7794 101.308 76.7873L99.1865 74.666ZM101.308 76.7873C104.009 74.0859 104.307 69.8108 102.026 66.7539L99.622 68.5479C101.015 70.4157 100.83 73.0228 99.1865 74.666L101.308 76.7873Z" fill="#E50068"/>
<path d="M74.3977 75.5582L76.7687 78.2655C78.9934 80.8056 78.8667 84.6357 76.4791 87.0233V87.0233C73.9753 89.5272 69.9157 89.5272 67.4119 87.0233L64.7238 84.3352" stroke="#E50068" stroke-width="3"/>
<rect x="32.8479" y="75.256" width="17.1597" height="8.53534" rx="4.26767" transform="rotate(-45 32.8479 75.256)" stroke="#E50068" stroke-width="3"/>
<rect x="25.9158" y="67.0168" width="13.3504" height="8.53534" rx="4.26767" transform="rotate(-45 25.9158 67.0168)" stroke="#E50068" stroke-width="3"/>
<rect x="40.4729" y="83.5743" width="17.1597" height="8.53534" rx="4.26767" transform="rotate(-45 40.4729 83.5743)" stroke="#E50068" stroke-width="3"/>
<rect x="48.0979" y="91.1996" width="17.1597" height="8.53534" rx="4.26767" transform="rotate(-45 48.0979 91.1996)" stroke="#E50068" stroke-width="3"/>
<path d="M26.1845 64.819C26.7617 65.4132 27.7113 65.4269 28.3055 64.8497C28.8998 64.2725 28.9135 63.3228 28.3363 62.7286L26.1845 64.819ZM15.4761 51.6429L14.1763 50.8941L13.6109 51.8756L14.4002 52.6881L15.4761 51.6429ZM33.8457 19.756V18.256H32.9787L32.546 19.0072L33.8457 19.756ZM28.3363 62.7286L16.552 50.5977L14.4002 52.6881L26.1845 64.819L28.3363 62.7286ZM16.7758 52.3917L35.1455 20.5047L32.546 19.0072L14.1763 50.8941L16.7758 52.3917ZM33.8457 21.256H42.7462V18.256H33.8457V21.256ZM48.3338 23.073L49.2535 23.7419L51.018 21.3157L50.0983 20.6468L48.3338 23.073ZM42.7462 21.256C44.7539 21.256 46.7101 21.8921 48.3338 23.073L50.0983 20.6468C47.9618 19.093 45.388 18.256 42.7462 18.256V21.256Z" fill="#E50068"/>
<rect x="2.04922" y="43.92" width="37.0866" height="14.9131" rx="1.5" transform="rotate(-59.981 2.04922 43.92)" stroke="#E50068" stroke-width="3"/>
<path d="M116.249 28.9534C115.834 28.236 114.917 27.9902 114.2 28.4044C113.482 28.8186 113.236 29.736 113.651 30.4534L116.249 28.9534ZM104.506 14.6139C104.92 15.3313 105.837 15.5771 106.555 15.1629C107.272 14.7487 107.518 13.8313 107.104 13.1139L104.506 14.6139ZM111.439 20.8182C111.068 20.0772 110.167 19.7769 109.426 20.1474C108.686 20.5179 108.385 21.4189 108.756 22.1599L111.439 20.8182ZM109.449 23.5462C109.819 24.2872 110.72 24.5875 111.461 24.2171C112.202 23.8466 112.503 22.9456 112.132 22.2046L109.449 23.5462ZM105.331 45.8701L88.288 16.3502L85.6899 17.8502L102.733 47.3701L105.331 45.8701ZM88.837 14.3012L99.154 8.34463L97.654 5.74655L87.337 11.7031L88.837 14.3012ZM117.697 40.4626L107.38 46.4191L108.88 49.0172L119.197 43.0606L117.697 40.4626ZM113.651 30.4534L118.246 38.4135L120.844 36.9135L116.249 28.9534L113.651 30.4534ZM101.203 8.89366L104.506 14.6139L107.104 13.1139L103.801 7.39366L101.203 8.89366ZM108.756 22.1599L109.449 23.5462L112.132 22.2046L111.439 20.8182L108.756 22.1599ZM119.197 43.0606C121.35 41.818 122.087 39.0658 120.844 36.9135L118.246 38.4135C118.661 39.131 118.415 40.0483 117.697 40.4626L119.197 43.0606ZM99.154 8.34463C99.8715 7.93041 100.789 8.17622 101.203 8.89366L103.801 7.39366C102.559 5.24135 99.8064 4.50391 97.654 5.74655L99.154 8.34463ZM88.288 16.3502C87.8738 15.6328 88.1196 14.7154 88.837 14.3012L87.337 11.7031C85.1847 12.9457 84.4473 15.6979 85.6899 17.8502L88.288 16.3502ZM102.733 47.3701C103.976 49.5224 106.728 50.2598 108.88 49.0172L107.38 46.4191C106.663 46.8333 105.745 46.5875 105.331 45.8701L102.733 47.3701Z" fill="#E50068"/>
</svg>
