<svg width="103" height="21" viewBox="0 0 103 21" fill="none" xmlns="http://www.w3.org/2000/svg">
<path d="M10.3 0L12.6125 7.11713H20.0959L14.0417 11.5157L16.3542 18.6329L10.3 14.2343L4.24581 18.6329L6.55831 11.5157L0.504118 7.11713H7.98751L10.3 0Z" fill="#E50068"/>
<path d="M30.8999 0L33.2123 7.11713H40.6957L34.6415 11.5157L36.954 18.6329L30.8999 14.2343L24.8457 18.6329L27.1582 11.5157L21.104 7.11713H28.5874L30.8999 0Z" fill="#E50068"/>
<path d="M51.5 0L53.8124 7.11713H61.2958L55.2416 11.5157L57.5541 18.6329L51.5 14.2343L45.4458 18.6329L47.7583 11.5157L41.7041 7.11713H49.1875L51.5 0Z" fill="#E50068"/>
<path d="M72.1 0L74.4125 7.11713H81.8959L75.8417 11.5157L78.1542 18.6329L72.1 14.2343L66.0459 18.6329L68.3584 11.5157L62.3042 7.11713H69.7876L72.1 0Z" fill="#E50068"/>
<path d="M92.7001 0L95.0126 7.11713H102.496L96.4418 11.5157L98.7543 18.6329L92.7001 14.2343L86.646 18.6329L88.9585 11.5157L82.9043 7.11713H90.3877L92.7001 0Z" fill="#E50068"/>
</svg>
