<svg width="148" height="89" viewBox="0 0 148 89" fill="none" xmlns="http://www.w3.org/2000/svg">
<path d="M88.8229 29.628L91.8546 28.5098C92.885 28.1297 93.7138 27.3427 94.1466 26.3332L101.678 8.76925C103.063 5.53767 107.645 5.53767 109.03 8.76925L116.302 25.7286C116.88 27.0757 118.148 27.999 119.607 28.135L137.944 29.8431C141.434 30.1682 142.848 34.5062 140.22 36.8253L126.36 49.0542C125.265 50.0199 124.783 51.5052 125.103 52.9294L129.155 70.9865C129.924 74.4132 126.22 77.0966 123.203 75.2978L106.827 65.5314C105.955 65.0111 104.843 65.1307 104.102 65.8247V65.8247M99.3427 68.4943L96.7128 70.381" stroke="#E50068" stroke-width="3" stroke-linecap="round"/>
<path d="M58.9598 29.628L55.9281 28.5098C54.8977 28.1297 54.0689 27.3427 53.6361 26.3332L46.105 8.76925C44.7194 5.53767 40.138 5.53767 38.7524 8.76925L31.4807 25.7286C30.903 27.0757 29.6348 27.999 28.1754 28.135L9.83848 29.8431C6.34839 30.1682 4.93468 34.5062 7.56307 36.8253L21.4231 49.0542C22.5177 50.0199 22.9993 51.5052 22.6797 52.9294L18.6276 70.9865C17.8586 74.4132 21.5631 77.0966 24.5794 75.2978L40.7258 65.6685C41.7581 65.0529 43.0586 65.1144 44.0282 65.8247V65.8247M48.44 68.4943L51.0699 70.381" stroke="#E50068" stroke-width="3" stroke-linecap="round"/>
<path d="M71.5953 9.31957C72.463 7.30466 75.3198 7.30466 76.1875 9.31957L83.4982 26.2955C84.2944 28.1445 86.0372 29.4107 88.0417 29.5966L106.446 31.3036C108.63 31.5062 109.513 34.2232 107.865 35.6711L93.979 47.8697C92.4666 49.1984 91.8009 51.2472 92.2435 53.211L96.3073 71.2419C96.7897 73.382 94.4784 75.0613 92.5921 73.9412L76.6995 64.5044C74.9685 63.4766 72.8143 63.4766 71.0833 64.5044L55.1907 73.9412C53.3044 75.0613 50.9931 73.3821 51.4755 71.2419L55.5393 53.211C55.9819 51.2472 55.3162 49.1984 53.8038 47.8697L39.9178 35.6711C38.2697 34.2232 39.1525 31.5062 41.3369 31.3036L59.7411 29.5966C61.7456 29.4107 63.4884 28.1445 64.2847 26.2955L71.5953 9.31957Z" stroke="#E50068" stroke-width="3"/>
</svg>
