<svg width="23" height="23" viewBox="0 0 23 23" fill="none" xmlns="http://www.w3.org/2000/svg">
<path d="M11.5 0C5.14912 0 0 5.14912 0 11.5C0 17.8509 5.14912 23 11.5 23C17.8509 23 23 17.8509 23 11.5C23 5.14912 17.8509 0 11.5 0ZM18.6875 12.2188C18.6875 13.8043 17.3981 15.0938 15.8125 15.0938C14.9443 15.0938 14.1737 14.6984 13.6462 14.0875C13.1359 14.7171 12.3927 15.0938 11.5 15.0938C9.80663 15.0938 8.625 13.7641 8.625 11.8594C8.625 9.95469 9.80663 8.625 11.5 8.625C12.0678 8.625 12.5709 8.786 12.9993 9.05625C13.11 8.80325 13.3616 8.625 13.6562 8.625C14.053 8.625 14.375 8.947 14.375 9.34375V12.2188C14.375 13.0122 15.019 13.6562 15.8125 13.6562C16.606 13.6562 17.25 13.0122 17.25 12.2188V11.8004C17.25 8.74575 15.1096 6.16687 12.2691 5.80031C10.3816 5.55881 8.56606 6.20856 7.28381 7.58856C6.003 8.97 5.48837 10.8431 5.8765 12.7276C6.31494 14.858 8.02987 16.6146 10.1416 17.0947C11.4957 17.4024 12.8469 17.25 14.0473 16.6534C14.4052 16.4795 14.8336 16.6218 15.0118 16.9783C15.1872 17.3348 15.042 17.7661 14.6869 17.9429C13.6893 18.4374 12.6112 18.6889 11.5057 18.6889C10.9494 18.6889 10.3859 18.6257 9.82244 18.4963C7.12856 17.8839 5.02694 15.7334 4.46775 13.0166C3.98619 10.672 4.62875 8.3375 6.23012 6.61106C7.83438 4.88462 10.1013 4.07531 12.4531 4.37288C16.008 4.83288 18.6875 8.02556 18.6875 11.8004V12.2188Z" fill="#E50068"/>
</svg>
