<svg width="35" height="34" viewBox="0 0 35 34" fill="none" xmlns="http://www.w3.org/2000/svg">
<path d="M17.8341 0.0744629H17.8256C8.4844 0.0744629 0.888184 7.68226 0.888184 17.0372C0.888184 20.7478 2.08257 24.187 4.11345 26.9795L2.0021 33.2812L8.51404 31.1969C11.1929 32.9737 14.3886 34 17.8341 34C27.1753 34 34.7715 26.3901 34.7715 17.0372C34.7715 7.68438 27.1753 0.0744629 17.8341 0.0744629ZM27.692 24.028C27.2833 25.1836 25.6611 26.142 24.3672 26.4219C23.482 26.6106 22.3257 26.7611 18.4334 25.1454C13.4547 23.0802 10.2484 18.0147 9.99856 17.6861C9.75926 17.3574 7.98673 15.0038 7.98673 12.5697C7.98673 10.1355 9.22136 8.95023 9.71902 8.44135C10.1277 8.02364 10.8033 7.83281 11.4513 7.83281C11.661 7.83281 11.8494 7.84341 12.0188 7.85189C12.5165 7.87309 12.7664 7.90278 13.0946 8.68943C13.5034 9.67539 14.4987 12.1095 14.6173 12.3597C14.738 12.6099 14.8587 12.9492 14.6893 13.2779C14.5304 13.6171 14.3907 13.7677 14.1408 14.056C13.8909 14.3444 13.6537 14.5649 13.4038 14.8745C13.1751 15.1438 12.9168 15.4321 13.2048 15.9304C13.4928 16.4181 14.4881 18.0444 15.9535 19.3505C17.8447 21.0362 19.3779 21.5748 19.9264 21.8038C20.3351 21.9734 20.8222 21.9331 21.1207 21.6151C21.4998 21.2058 21.9678 20.5273 22.4443 19.8594C22.7831 19.3802 23.2109 19.3208 23.6599 19.4905C24.1173 19.6495 26.5378 20.8475 27.0355 21.0956C27.5332 21.3458 27.8614 21.4645 27.9821 21.6744C28.1007 21.8843 28.1007 22.8703 27.692 24.028Z" fill="#646464"/>
</svg>
